<?xml version="1.0" encoding="utf-8"?>
<!-- Svg Vector Icons : http://www.onlinewebfonts.com/icon -->
<!DOCTYPE svg PUBLIC "-//W3C//DTD SVG 1.1//EN" "http://www.w3.org/Graphics/SVG/1.1/DTD/svg11.dtd">
<svg version="1.1" xmlns="http://www.w3.org/2000/svg" xmlns:xlink="http://www.w3.org/1999/xlink" x="0px" y="0px" viewBox="0 0 1000 1000" enable-background="new 0 0 1000 1000" xml:space="preserve">
<metadata> Svg Vector Icons : http://www.onlinewebfonts.com/icon </metadata>
<g><g><g><polygon points="149.5,89.6 667.2,89.6 667.2,123.2 713.3,123.2 713.3,10 667.2,10 667.2,43.6 149.5,43.6 149.5,10 103.4,10 103.4,123.2 149.5,123.2 "/><polygon points="899.2,234.8 899.2,188.7 786.1,188.7 786.1,234.8 819.6,234.8 819.6,944 786.1,944 786.1,990 899.2,990 899.2,944 865.7,944 865.7,234.8 "/><path d="M100.8,990h615.2V188.7H100.8V990z M150.7,238.6h515.4v701.5H150.7V238.6z"/></g></g><g></g><g></g><g></g><g></g><g></g><g></g><g></g><g></g><g></g><g></g><g></g><g></g><g></g><g></g><g></g></g>
</svg>